<?xml version="1.0" encoding="UTF-8" standalone="no"?>
<svg version="1.1" id="svg2" xml:space="preserve" width="734.18665" height="242.96001" viewBox="0 0 734.18665 242.96001" xmlns="http://www.w3.org/2000/svg" xmlns:svg="http://www.w3.org/2000/svg">
  <g id="g8" transform="matrix(1.3333333,0,0,-1.3333333,0,242.96)">
    <g id="g10" transform="scale(0.1)">
      <path d="m 2499.55,1585.81 v -492 h -468.98 v 492 H 1852.25 V 538.82 h 178.32 v 386.836 h 468.98 V 538.82 h 178.32 v 1046.99 h -178.32" style="fill:#ffffff;fill-opacity:1;fill-rule:nonzero;stroke:none" id="path12" />
      <path d="m 2998.91,1413.85 h 270.66 c 89.06,0 161.52,-71.89 161.52,-160.26 0,-87.65 -72.46,-158.96 -161.52,-158.96 h -270.66 z m 275.74,171.96 H 2820.6 V 538.82 h 178.31 v 383.84 h 275.74 c 184.58,0 334.75,148.45 334.75,330.93 0,183.19 -150.17,332.22 -334.75,332.22" style="fill:#ffffff;fill-opacity:1;fill-rule:nonzero;stroke:none" id="path14" />
      <path d="m 4572.56,674.41 c -98.93,-91.66 -228.42,-144.039 -363.73,-144.039 -295.34,0 -535.4,241.508 -535.4,536.859 0,295.34 240.06,535.4 535.4,535.4 135.31,0 264.8,-49.47 363.73,-141.12 l -128.03,-138.22 c -64.02,59.65 -148.4,93.11 -235.7,93.11 -192.04,0 -347.72,-157.13 -347.72,-349.17 0,-192.046 155.68,-349.179 347.72,-349.179 88.75,0 173.14,33.469 237.15,93.121 L 4572.56,674.41" style="fill:#ffffff;fill-opacity:1;fill-rule:nonzero;stroke:none" id="path16" />
      <path d="m 5506.36,674.41 c -98.93,-91.66 -228.42,-144.039 -363.72,-144.039 -295.35,0 -535.41,241.508 -535.41,536.859 0,295.34 240.06,535.4 535.41,535.4 135.3,0 264.79,-49.47 363.72,-141.12 l -128.03,-138.22 c -64.02,59.65 -148.4,93.11 -235.69,93.11 -192.05,0 -347.72,-157.13 -347.72,-349.17 0,-192.046 155.67,-349.179 347.72,-349.179 88.74,0 173.13,33.469 237.14,93.121 L 5506.36,674.41" style="fill:#ffffff;fill-opacity:1;fill-rule:nonzero;stroke:none" id="path18" />
      <path d="M 2072.78,77.9297 C 2072.78,19.3008 2017.56,0 1960.43,0 c -38.95,0 -73.38,9.08984 -108.18,29.1289 l 24.59,38.9609 c 26.86,-14.75 57.12,-24.1992 85.49,-24.1992 36.31,0 59.76,9.4492 59.76,31.3907 0,24.1992 -32.15,33.2887 -67.32,44.2577 -45.77,13.992 -97.22,29.883 -97.22,83.211 0,21.18 9.08,38.961 26.48,51.82 18.91,13.621 46.91,20.809 81.33,20.809 35.93,0 67.32,-9.09 102.13,-29.129 l -23.83,-37.828 c -27.24,15.137 -52.58,23.449 -80.58,23.449 -37.07,0 -54.84,-11.34 -54.84,-27.223 0,-24.968 32.91,-33.679 69.22,-45.019 44.63,-14 95.32,-31.391 95.32,-81.6993" style="fill:#59aedd;fill-opacity:1;fill-rule:nonzero;stroke:none" id="path20" />
      <path d="m 2654.31,270.082 -107.8,-159.25 V 5.67969 h -48.8 V 110.832 l -107.43,159.25 h 55.61 l 76.41,-113.094 76.4,113.094 h 55.61" style="fill:#59aedd;fill-opacity:1;fill-rule:nonzero;stroke:none" id="path22" />
      <path d="M 3184.39,77.9297 C 3184.39,19.3008 3129.17,0 3072.05,0 3033.1,0 2998.67,9.08984 2963.87,29.1289 l 24.58,38.9609 c 26.86,-14.75 57.13,-24.1992 85.49,-24.1992 36.31,0 59.77,9.4492 59.77,31.3907 0,24.1992 -32.15,33.2887 -67.33,44.2577 -45.77,13.992 -97.21,29.883 -97.21,83.211 0,21.18 9.07,38.961 26.48,51.82 18.91,13.621 46.9,20.809 81.32,20.809 35.93,0 67.33,-9.09 102.13,-29.129 l -23.83,-37.828 c -27.23,15.137 -52.58,23.449 -80.57,23.449 -37.07,0 -54.84,-11.34 -54.84,-27.223 0,-24.968 32.9,-33.679 69.21,-45.019 44.64,-14 95.32,-31.391 95.32,-81.6993" style="fill:#59aedd;fill-opacity:1;fill-rule:nonzero;stroke:none" id="path24" />
      <path d="m 3747.01,270.082 v -45.391 h -92.67 V 5.67969 h -48.42 V 224.691 h -92.67 v 45.391 h 233.76" style="fill:#59aedd;fill-opacity:1;fill-rule:nonzero;stroke:none" id="path26" />
      <path d="m 4139.78,224.691 v -63.929 h 135.79 V 115 H 4139.78 V 51.4492 h 164.16 V 5.67969 H 4090.98 V 270.082 h 212.96 v -45.391 h -164.16" style="fill:#59aedd;fill-opacity:1;fill-rule:nonzero;stroke:none" id="path28" />
      <path d="m 4942.96,5.67969 h -48.42 V 179.301 l -81.7,-114.2307 h -28.37 l -81.7,114.2307 V 5.67969 h -48.8 V 270.082 h 38.21 l 106.29,-149.043 106.66,149.043 h 37.83 V 5.67969" style="fill:#59aedd;fill-opacity:1;fill-rule:nonzero;stroke:none" id="path30" />
      <path d="M 5506.36,77.9297 C 5506.36,19.3008 5451.14,0 5394.01,0 c -38.95,0 -73.38,9.08984 -108.18,29.1289 l 24.59,38.9609 c 26.86,-14.75 57.12,-24.1992 85.49,-24.1992 36.31,0 59.76,9.4492 59.76,31.3907 0,24.1992 -32.15,33.2887 -67.32,44.2577 -45.77,13.992 -97.22,29.883 -97.22,83.211 0,21.18 9.08,38.961 26.48,51.82 18.91,13.621 46.91,20.809 81.33,20.809 35.93,0 67.32,-9.09 102.13,-29.129 l -23.83,-37.828 c -27.24,15.137 -52.58,23.449 -80.58,23.449 -37.07,0 -54.84,-11.34 -54.84,-27.223 0,-24.968 32.91,-33.679 69.22,-45.019 44.63,-14 95.32,-31.391 95.32,-81.6993" style="fill:#59aedd;fill-opacity:1;fill-rule:nonzero;stroke:none" id="path32" />
      <path d="M 1638.91,1002.77 C 1638.91,550.199 1272.03,183.32 819.453,183.32 366.883,183.32 0,550.199 0,1002.77 c 0,452.58 366.883,819.46 819.453,819.46 452.577,0 819.457,-366.88 819.457,-819.46" style="fill:#337fb4;fill-opacity:1;fill-rule:evenodd;stroke:none" id="path34" />
      <path d="m 785.758,1333.81 c 65.965,-43.33 164.437,-4.34 162.172,86.78 -0.004,0.03 -0.004,0.06 -0.008,0.09 0,0.04 -0.004,0.07 -0.008,0.11 -0.004,0.03 -0.004,0.06 -0.008,0.09 0,0.04 -0.008,0.07 -0.008,0.1 -0.003,0.04 -0.003,0.07 -0.007,0.11 -0.004,0.03 -0.004,0.06 -0.008,0.09 0,0.04 -0.008,0.07 -0.008,0.1 -0.004,0.04 -0.004,0.07 -0.008,0.1 -10.722,75.73 -77.961,97.93 -122.281,89.5 -89.703,-17.05 -114.641,-127.93 -39.828,-177.07" style="fill:#ffffff;fill-opacity:1;fill-rule:nonzero;stroke:none" id="path36" />
      <path d="m 742.863,595 c -0.004,-0.02 -0.004,-0.051 -0.008,-0.078 0,-0.024 -0.003,-0.051 -0.007,-0.07 0,-0.032 -0.004,-0.051 -0.004,-0.082 -0.004,-0.032 -0.004,-0.051 -0.008,-0.079 0,-0.019 0,-0.05 -0.008,-0.07 0,-0.031 0,-0.051 -0.004,-0.082 0,-0.019 -0.004,-0.051 -0.008,-0.078 0,-0.02 -0.003,-0.051 -0.003,-0.082 -1.872,-96.719 115.746,-131.18 176.628,-72.899 23.258,22.27 26.633,46.942 28.254,58.801 1.809,77.629 -64.574,103.539 -106.84,101.641 C 808.68,680.469 751.836,660.539 742.863,595" style="fill:#ffffff;fill-opacity:1;fill-rule:nonzero;stroke:none" id="path38" />
      <path d="m 995.172,697.148 c 74.448,-64.136 192.058,-13.707 196.628,84.313 -0.85,87.262 -72.97,120.93 -123.9,116.965 C 962.855,890.254 917.316,764.219 995.172,697.148" style="fill:#ffffff;fill-opacity:1;fill-rule:nonzero;stroke:none" id="path40" />
      <path d="m 1241.23,894.992 c 75.58,-63.383 198.67,-20.867 204.95,99.852 -0.03,77.986 -63.5,137.216 -138.59,129.336 -110.04,-11.54 -152.21,-157.192 -66.36,-229.188" style="fill:#ffffff;fill-opacity:1;fill-rule:nonzero;stroke:none" id="path42" />
      <path d="m 955.797,1208.67 c 0,-0.03 0.004,-0.05 0.004,-0.08 0.004,-0.03 0.004,-0.06 0.004,-0.08 0,-0.03 0.004,-0.06 0.004,-0.08 0,-0.03 0,-0.06 0.004,-0.08 0,-0.03 0,-0.06 0,-0.08 0.003,-0.03 0.003,-0.06 0.003,-0.09 0,-0.02 0,-0.05 0,-0.08 0.004,-0.03 0.004,-0.05 0.004,-0.08 10.879,-118.09 149.14,-148.2 210.47,-71 23.59,29.69 24.1,60.17 24.34,74.82 0,0.01 0,0.03 0,0.04 0,0.01 0,0.03 0,0.04 0,0.02 0,0.03 0,0.04 0,0.02 0,0.03 0,0.05 0,0.01 -0.01,0.02 -0.01,0.04 0,0.01 0,0.02 0,0.04 0,0.01 0,0.03 0,0.04 0,0.01 0,0.03 0,0.04 -7.84,89.56 -82.89,121.46 -133.67,115.5 -34.46,-4.04 -99.942,-34.12 -101.153,-119" style="fill:#ffffff;fill-opacity:1;fill-rule:nonzero;stroke:none" id="path44" />
      <path d="m 517.941,697.148 c 74.454,-64.136 192.063,-13.707 196.625,84.313 -0.847,87.262 -72.961,120.93 -123.89,116.965 -105.047,-8.172 -150.59,-134.207 -72.735,-201.278" style="fill:#8fd9f7;fill-opacity:1;fill-rule:nonzero;stroke:none" id="path46" />
      <path d="m 764.004,894.992 c 75.574,-63.383 198.668,-20.867 204.945,99.852 -0.031,77.986 -63.496,137.216 -138.59,129.336 C 720.324,1112.64 678.152,966.988 764.004,894.992" style="fill:#8fd9f7;fill-opacity:1;fill-rule:nonzero;stroke:none" id="path48" />
      <path d="m 478.57,1208.67 c 0,-0.03 0,-0.05 0,-0.08 0.004,-0.03 0.004,-0.06 0.004,-0.08 0,-0.03 0.004,-0.06 0.004,-0.08 0.004,-0.03 0.004,-0.06 0.004,-0.08 0,-0.03 0,-0.06 0.004,-0.08 0,-0.03 0,-0.06 0,-0.09 0.004,-0.02 0.004,-0.05 0.004,-0.08 0.004,-0.03 0.004,-0.05 0.004,-0.08 10.875,-118.09 149.136,-148.2 210.469,-71 23.593,29.69 24.097,60.17 24.339,74.82 0,0.01 0,0.03 0,0.04 0,0.01 0,0.03 -0.004,0.04 0,0.02 0,0.03 0,0.04 0,0.02 0,0.03 0,0.05 0,0.01 -0.003,0.02 -0.003,0.04 0,0.01 0,0.02 0,0.04 0,0.01 0,0.03 0,0.04 0,0.01 0,0.03 -0.004,0.04 -7.84,89.56 -82.887,121.46 -133.672,115.5 -34.457,-4.04 -99.942,-34.12 -101.149,-119" style="fill:#8fd9f7;fill-opacity:1;fill-rule:nonzero;stroke:none" id="path50" />
      <path d="m 278.949,894.992 c 75.578,-63.383 198.672,-20.867 204.949,99.852 -0.031,77.986 -63.496,137.216 -138.593,129.336 C 235.273,1112.64 193.102,966.988 278.949,894.992" style="fill:#1db28b;fill-opacity:1;fill-rule:nonzero;stroke:none" id="path52" />
    </g>
  </g>
</svg>